<?xml version="1.0" encoding="UTF-8"?>
<svg width="105px" height="30px" viewBox="0 0 105 30" version="1.1" xmlns="http://www.w3.org/2000/svg" xmlns:xlink="http://www.w3.org/1999/xlink" style="background: #FFFFFF;">
    <title>Navigation/Header/Logo</title>
    <defs>
        <polygon id="path-1" points="0 0 4.7189 0 4.7189 8.258 0 8.258"></polygon>
        <polygon id="path-3" points="0 -1.77635684e-15 7.079 -1.77635684e-15 7.079 8.8488 0 8.8488"></polygon>
        <polygon id="path-5" points="0 30 105 30 105 0 0 0"></polygon>
    </defs>
    <g id="Navigation/Header/Logo" stroke="none" stroke-width="1" fill="none" fill-rule="evenodd">
        <rect fill="#FFFFFF" x="0" y="0" width="105" height="30"></rect>
        <g id="Group-43-Copy" transform="translate(0.000000, -0.000000)">
            <g id="Group-3" transform="translate(100.281100, 19.382000)">
                <mask id="mask-2" fill="white">
                    <use xlink:href="#path-1"></use>
                </mask>
                <g id="Clip-2"></g>
                <path d="M1.131,0 L1.131,1.929 L0,1.929 L0,2.681 L1.131,2.681 L1.131,6.488 C1.131,8.127 2.184,8.258 3.455,8.258 C3.772,8.258 4.09,8.212 4.444,8.155 L4.546,8.14 L4.546,7.374 L4.4,7.406 C4.255,7.438 4.083,7.455 3.889,7.455 C2.872,7.455 2.82,7.154 2.82,6.284 L2.82,2.681 L4.719,2.681 L4.719,1.929 L2.82,1.929 L2.82,0 L1.131,0" id="Fill-1" fill="#343534" mask="url(#mask-2)"></path>
            </g>
            <path d="M97.909,23.0775 L99.691,21.1515 L97.859,21.1515 L96.169,22.9765 L94.677,21.1555 L92.023,21.1555 L92.023,21.6225 L92.139,21.6285 C93.043,21.6865 93.247,21.8385 93.803,22.5225 L94.889,23.8705 L93.115,25.7845 L94.949,25.7845 L95.742,24.9295 L97.452,27.0505 L99.507,27.0505 L96.251,23.0775 L97.909,23.0775" id="Fill-4" fill="#343534"></path>
            <path d="M92.0226,23.7237 C92.0226,22.0157 91.0906,21.1517 89.2526,21.1517 C87.1756,21.1517 86.1236,22.1727 86.1236,24.1867 C86.1236,26.3477 87.4806,27.6407 89.7536,27.6407 C90.7436,27.6407 91.5086,27.3897 91.7966,27.2927 L91.8946,27.2617 L91.8946,26.4377 L91.7356,26.4957 C91.4586,26.5967 90.9696,26.7057 90.4286,26.7057 C88.6436,26.7057 87.9786,25.1917 87.9416,23.8447 L92.0226,23.8447 L92.0226,23.7237 Z M89.1956,21.8307 C90.0916,21.8307 90.3216,22.4887 90.3476,23.0897 L87.9436,23.0897 C87.9866,22.6497 88.2576,21.8307 89.1956,21.8307 L89.1956,21.8307 Z" id="Fill-6" fill="#343534"></path>
            <path d="M84.2351,18.7921 L82.5581,18.7921 L82.5581,25.5121 C82.2121,24.9791 78.1901,18.7921 78.1901,18.7921 L74.3261,18.7921 L74.3261,19.2971 L74.6591,19.3541 C75.6781,19.5301 75.7611,19.5431 75.7611,20.5501 L75.7611,27.6401 L77.5571,27.6401 L77.5571,20.6021 C77.9051,21.1361 82.1401,27.6401 82.1401,27.6401 L84.3541,27.6401 L84.3541,18.7921 L84.2351,18.7921" id="Fill-8" fill="#343534"></path>
            <path d="M69.6068,23.7229 C69.6068,22.0159 68.6738,21.1519 66.8368,21.1519 C64.7598,21.1519 63.7078,22.1709 63.7078,24.1839 C63.7078,26.3489 65.0648,27.6409 67.3378,27.6409 C68.3278,27.6409 69.0928,27.3869 69.3808,27.2919 L69.4788,27.2609 L69.4788,26.4359 L69.3188,26.4949 C69.0428,26.5979 68.5538,26.7049 68.0118,26.7049 C66.2278,26.7049 65.5628,25.1909 65.5258,23.8429 L69.6068,23.8429 L69.6068,23.7229 Z M66.7788,21.8289 C67.6748,21.8289 67.9048,22.4879 67.9298,23.0879 L65.5288,23.0879 C65.5698,22.6499 65.8418,21.8289 66.7788,21.8289 L66.7788,21.8289 Z" id="Fill-10" fill="#343534"></path>
            <path d="M60.6142,21.1556 C59.3652,21.1556 58.6452,21.9556 58.2852,22.5436 L58.2852,18.2026 L58.1502,18.2206 L55.4492,18.5616 L55.4492,19.0506 L55.5652,19.0546 C56.4052,19.0936 56.5862,19.2826 56.5862,20.1256 L56.5862,27.6406 L58.2852,27.6406 L58.2852,24.3976 C58.2852,23.2126 59.1452,22.2946 59.8852,22.2946 C60.8292,22.2946 60.8292,23.0206 60.8292,23.6646 L60.8292,27.6406 L62.5282,27.6406 L62.5282,23.4686 C62.5282,22.7746 62.5282,21.1556 60.6142,21.1556" id="Fill-12" fill="#343534"></path>
            <path d="M50.682,19.382 L50.682,21.309 L49.551,21.309 L49.551,22.061 L50.682,22.061 L50.682,25.869 C50.682,27.509 51.733,27.64 53.004,27.64 C53.321,27.64 53.641,27.594 53.994,27.537 L54.095,27.522 L54.095,26.755 L53.95,26.788 C53.804,26.82 53.633,26.837 53.439,26.837 C52.423,26.837 52.371,26.536 52.371,25.666 L52.371,22.061 L54.27,22.061 L54.27,21.309 L52.371,21.309 L52.371,19.382 L50.682,19.382" id="Fill-14" fill="#343534"></path>
            <path d="M44.8315,23.7229 C44.8315,22.0159 43.9005,21.1519 42.0625,21.1519 C39.9865,21.1519 38.9325,22.1709 38.9325,24.1839 C38.9325,26.3489 40.2905,27.6409 42.5635,27.6409 C43.5535,27.6409 44.3175,27.3869 44.6055,27.2919 L44.7025,27.2609 L44.7025,26.4359 L44.5435,26.4949 C44.2675,26.5979 43.7785,26.7049 43.2365,26.7049 C41.4535,26.7049 40.7885,25.1909 40.7505,23.8429 L44.8315,23.8429 L44.8315,23.7229 Z M42.0045,21.8289 C42.9005,21.8289 43.1305,22.4879 43.1565,23.0879 L40.7535,23.0879 C40.7965,22.6499 41.0685,21.8289 42.0045,21.8289 L42.0045,21.8289 Z" id="Fill-16" fill="#343534"></path>
            <path d="M38.3421,22.6037 L38.3421,21.2547 L38.2441,21.2397 C37.9771,21.1957 37.7071,21.1727 37.4641,21.1727 C36.5341,21.1727 36.0451,21.8917 35.7901,22.4567 L35.7901,21.1517 L35.6561,21.1737 L33.0341,21.6097 L33.0341,22.0967 L33.1471,22.0977 C33.9781,22.1237 34.1471,22.2997 34.1471,23.1387 L34.1471,27.6407 L35.7901,27.6407 L35.7901,24.3947 C35.7901,23.8467 35.9581,22.5707 37.5061,22.5707 C37.6891,22.5707 37.8871,22.6287 38.0771,22.6867 L38.3431,22.7657 L38.3421,22.6037" id="Fill-18" fill="#343534"></path>
            <path d="M28.3146,21.6097 L28.3146,22.0947 L28.4366,22.0977 C29.3116,22.1237 29.4886,22.2997 29.4886,23.1387 L29.4886,27.6407 L31.2636,27.6407 L31.2636,21.1517 L31.1186,21.1737 L28.3146,21.6097" id="Fill-20" fill="#343534"></path>
            <path d="M30.0592,20.5618 C30.7242,20.5618 31.2642,20.1608 31.2642,19.6698 C31.2642,19.1868 30.7302,18.7918 30.0752,18.7918 C29.4292,18.7918 28.9042,19.1868 28.9042,19.6698 C28.9042,20.1608 29.4212,20.5618 30.0592,20.5618" id="Fill-22" fill="#343534"></path>
            <g id="Group-26" transform="translate(20.055900, 21.151200)">
                <mask id="mask-4" fill="white">
                    <use xlink:href="#path-3"></use>
                </mask>
                <g id="Clip-25"></g>
                <path d="M4.501,0.021 C3.891,0.021 3.295,0.319 2.765,0.886 L2.765,-1.77635684e-15 L2.63,0.022 L0,0.443 L0,0.912 L0.114,0.915 C0.937,0.94 1.103,1.11 1.103,1.921 L1.103,8.849 L2.751,8.849 L2.751,5.693 C3.054,6.067 3.534,6.412 4.444,6.412 C6.167,6.412 7.079,5.273 7.079,3.122 C7.079,1.15 6.14,0.021 4.501,0.021 M4.035,0.941 C5.159,0.941 5.289,2.186 5.289,3.122 C5.289,4.715 4.883,5.49 4.048,5.49 C2.977,5.49 2.751,4.47 2.751,3.615 L2.751,3.095 C2.751,2.449 2.876,0.941 4.035,0.941" id="Fill-24" fill="#343534" mask="url(#mask-4)"></path>
            </g>
            <path d="M16.941,23.6177 C16.276,23.2887 15.702,23.0047 15.702,22.5407 C15.702,22.0137 16.328,21.9577 16.598,21.9577 C17.292,21.9577 17.914,22.3427 18.178,22.5067 L18.444,22.6687 L18.441,22.4517 L18.441,21.3927 L18.233,21.3467 C17.926,21.2777 17.355,21.1517 16.698,21.1517 C15.107,21.1517 14.157,21.8397 14.157,22.9927 C14.157,24.0277 15.144,24.5157 16.015,24.9457 C16.692,25.2807 17.332,25.5957 17.332,26.0947 C17.332,26.5637 16.921,26.8327 16.205,26.8327 C15.419,26.8327 14.752,26.4267 14.354,26.1837 L14.172,26.0727 L14.172,27.3857 L14.296,27.4137 C14.638,27.4927 15.276,27.6407 16.147,27.6407 C17.855,27.6407 18.876,26.9327 18.876,25.7487 C18.876,24.5767 17.848,24.0667 16.941,23.6177" id="Fill-27" fill="#343534"></path>
            <path d="M10.506,21.1729 C9.253,21.1729 8.509,22.0329 8.168,22.5629 L8.168,21.1519 L8.029,21.1739 L5.309,21.6099 L5.309,22.0969 L5.426,22.0979 C6.287,22.1239 6.473,22.3089 6.473,23.1389 L6.473,27.6409 L8.168,27.6409 L8.168,24.3269 C8.168,23.4459 8.978,22.3089 9.837,22.3089 C10.65,22.3089 10.692,23.0009 10.692,24.1319 L10.692,27.6409 L12.388,27.6409 L12.388,23.1389 C12.388,21.8709 11.719,21.1729 10.506,21.1729" id="Fill-29" fill="#343534"></path>
            <path d="M3.4052,18.2139 L0.0002,18.5159 L0.0002,19.0039 L0.1082,19.0159 C1.4782,19.1729 1.4782,19.1729 1.4782,20.1309 L1.4782,27.0509 L3.5392,27.0509 L3.5392,18.2019 L3.4052,18.2139" id="Fill-31" fill="#343534"></path>
            <polygon id="Fill-33" fill="#D82237" points="101.5589 19.382 99.6909 19.382 101.9529 17.022 103.8199 17.022"></polygon>
            <mask id="mask-6" fill="white">
                <use xlink:href="#path-5"></use>
            </mask>
            <g id="Clip-36"></g>
            <polygon id="Fill-35" fill="#343534" mask="url(#mask-6)" points="95.562 14.747 99.101 14.747 99.101 0.59 95.562 0.59"></polygon>
            <path d="M81.088,0.5905 C81.088,0.5905 81.088,6.2915 81.088,6.2505 L88.791,6.2505 C88.791,6.2715 88.785,0.5895 88.791,0.5905 C88.785,0.5895 92.568,0.5905 92.607,0.5905 C92.607,0.5905 92.619,14.7315 92.607,14.7465 C92.602,14.7475 88.796,14.7475 88.791,14.7465 L88.791,8.5165 C88.791,8.5345 81.088,8.5165 81.088,8.5165 C81.094,8.5405 81.088,14.7505 81.088,14.7465 L77.275,14.7465 C77.275,14.7465 77.296,0.5905 77.275,0.5905 L81.088,0.5905" id="Fill-37" fill="#343534" mask="url(#mask-6)"></path>
            <path d="M59.4908,10.5056 C59.1628,9.5636 58.9888,8.5666 58.9888,7.5136 C58.9888,6.0396 59.2508,4.6096 59.9608,3.4236 C60.6908,2.1986 61.8128,1.2536 63.1678,0.7486 C64.4598,0.2686 65.8508,-0.0004 67.3098,-0.0004 C68.9878,-0.0004 70.5768,0.3666 72.0258,0.9906 C73.3728,1.5666 74.3898,2.7766 74.6908,4.2376 C74.7528,4.5276 74.7978,4.8256 74.8248,5.1276 L70.9028,5.1276 C70.8898,4.7536 70.8288,4.3826 70.6998,4.0466 C70.4028,3.2696 69.7538,2.6636 68.9468,2.4216 C68.4288,2.2636 67.8788,2.1776 67.3098,2.1776 C66.6608,2.1776 66.0388,2.2916 65.4598,2.4956 C64.5018,2.8316 63.7558,3.6026 63.4188,4.5566 C63.0928,5.4806 62.9088,6.4786 62.9088,7.5136 C62.9088,8.3716 63.0448,9.1976 63.2648,9.9836 C63.5468,11.0056 64.3198,11.8266 65.3058,12.2006 C65.9298,12.4336 66.6028,12.5706 67.3098,12.5706 C67.9118,12.5706 68.4918,12.4796 69.0368,12.3036 C69.7678,12.0726 70.3628,11.5366 70.6718,10.8446 C70.8758,10.3856 70.9778,9.8756 70.9778,9.3386 L74.9158,9.3386 C74.8928,9.7946 74.8288,10.2466 74.7268,10.6706 C74.3898,12.0596 73.4128,13.2266 72.1148,13.7696 C70.6348,14.3896 69.0148,14.7476 67.3098,14.7476 C65.9878,14.7476 64.7128,14.5396 63.5188,14.1656 C61.6968,13.5926 60.1178,12.2876 59.4908,10.5056" id="Fill-38" fill="#343534" mask="url(#mask-6)"></path>
            <path d="M59.5787258,14.7454 C59.5907,14.7464 55.4087,14.7454 55.4347,14.7454 C55.4407,14.7454 54.2177,11.7014 54.2177,11.7014 L47.2427,11.7014 C47.2427,11.7014 46.0437,14.7494 46.0257,14.7454 C46.0287,14.7494 41.8817,14.7454 41.8817,14.7454 L48.4477,0.5894 C48.4477,0.5984 53.0117,0.5894 53.0117,0.5894 L59.5787258,14.7454 M50.7297,2.9974 L48.1397,9.4354 L53.3217,9.4354 L50.7297,2.9974" id="Fill-39" fill="#343534" mask="url(#mask-6)"></path>
            <path d="M45.4209,0.5899 C45.4219,0.6309 45.4209,2.9979 45.4209,2.9979 L39.6419,2.9979 L39.6419,14.7469 L35.8619,14.7469 L35.8619,2.9979 L30.0839,2.9979 C30.0839,2.9979 30.0909,0.5929 30.0839,0.5899 C30.0909,0.5929 45.4209,0.5899 45.4209,0.5899" id="Fill-40" fill="#343534" mask="url(#mask-6)"></path>
            <polygon id="Fill-41" fill="#343534" mask="url(#mask-6)" points="24.775 14.747 28.314 14.747 28.314 0.59 24.775 0.59"></polygon>
            <path d="M10.3048,0.5905 C10.3048,0.5905 10.3008,6.2915 10.3048,6.2505 L18.0048,6.2505 C18.0048,6.2715 17.9998,0.5895 18.0048,0.5905 C17.9998,0.5895 21.7808,0.5905 21.8208,0.5905 C21.8208,0.5905 21.8328,14.7315 21.8208,14.7465 C21.8168,14.7475 18.0078,14.7475 18.0048,14.7465 L18.0048,8.5165 C18.0048,8.5345 10.3048,8.5165 10.3048,8.5165 C10.3078,8.5405 10.3008,14.7505 10.3048,14.7465 L6.4888,14.7465 C6.4888,14.7465 6.5098,0.5905 6.4888,0.5905 L10.3048,0.5905" id="Fill-42" fill="#343534" mask="url(#mask-6)"></path>
        </g>
    </g>
</svg>